<?xml version="1.0" encoding="utf-8"?>
<!-- Generator: Adobe Illustrator 18.1.1, SVG Export Plug-In . SVG Version: 6.00 Build 0)  -->
<svg version="1.1" baseProfile="tiny" id="Layer_1" xmlns="http://www.w3.org/2000/svg" xmlns:xlink="http://www.w3.org/1999/xlink"
	 x="0px" y="0px" viewBox="0 0 284 96" xml:space="preserve">
<g>
	<g>
		<path fill="#FFFFFF" d="M163.2,29.5l-16.2,37h-8.5l-16.1-37h9.3l11.4,26.4l11.5-26.4H163.2z"/>
		<path fill="#FFFFFF" d="M176.1,64.6c-3.1-1.7-5.6-3.9-7.3-6.8c-1.8-2.9-2.6-6.2-2.6-9.8c0-3.6,0.9-6.9,2.6-9.8
			c1.8-2.9,4.2-5.2,7.3-6.8c3.1-1.7,6.6-2.5,10.5-2.5c3.9,0,7.4,0.8,10.5,2.5c3.1,1.7,5.5,3.9,7.3,6.8c1.8,2.9,2.7,6.2,2.7,9.8
			c0,3.6-0.9,6.9-2.7,9.8c-1.8,2.9-4.2,5.2-7.3,6.8c-3.1,1.7-6.6,2.5-10.5,2.5C182.8,67.1,179.3,66.3,176.1,64.6z M192.6,58.3
			c1.8-1,3.2-2.4,4.2-4.2c1-1.8,1.5-3.8,1.5-6.1c0-2.3-0.5-4.3-1.5-6.1c-1-1.8-2.4-3.2-4.2-4.2c-1.8-1-3.8-1.5-6-1.5
			c-2.2,0-4.2,0.5-6,1.5c-1.8,1-3.2,2.4-4.2,4.2c-1,1.8-1.5,3.8-1.5,6.1c0,2.3,0.5,4.3,1.5,6.1s2.4,3.2,4.2,4.2c1.8,1,3.8,1.5,6,1.5
			C188.8,59.8,190.8,59.3,192.6,58.3z"/>
		<path fill="#FFFFFF" d="M223.8,64.7c-3.1-1.6-5.5-3.9-7.3-6.8c-1.8-2.9-2.6-6.2-2.6-9.9c0-3.7,0.9-6.9,2.6-9.9
			c1.8-2.9,4.2-5.2,7.3-6.8c3.1-1.6,6.5-2.5,10.4-2.5c3.2,0,6.2,0.6,8.8,1.7c2.6,1.1,4.8,2.7,6.6,4.9l-5.6,5.1
			c-2.5-2.9-5.7-4.3-9.4-4.3c-2.3,0-4.4,0.5-6.2,1.5c-1.8,1-3.2,2.4-4.2,4.2c-1,1.8-1.5,3.8-1.5,6.1c0,2.3,0.5,4.3,1.5,6.1
			s2.4,3.2,4.2,4.2c1.8,1,3.9,1.5,6.2,1.5c3.7,0,6.9-1.5,9.4-4.4l5.6,5.1c-1.8,2.1-4,3.8-6.6,4.9c-2.6,1.1-5.6,1.7-8.8,1.7
			C230.3,67.1,226.9,66.3,223.8,64.7z"/>
		<path fill="#FFFFFF" d="M262.1,65.4c-2.5-0.9-4.4-2.1-5.8-3.6l1.2-2c1.3,1.4,3.1,2.5,5.3,3.4c2.2,0.9,4.6,1.3,7,1.3
			c3.6,0,6.2-0.7,8.1-2c1.8-1.3,2.7-3.1,2.7-5.2c0-1.7-0.5-3-1.4-4c-1-1-2.2-1.7-3.6-2.3c-1.4-0.5-3.3-1.1-5.8-1.6
			c-2.7-0.7-4.9-1.3-6.6-2c-1.7-0.6-3.1-1.6-4.2-2.9c-1.2-1.3-1.7-3.1-1.7-5.3c0-1.8,0.5-3.4,1.4-4.9c1-1.5,2.4-2.7,4.4-3.6
			c2-0.9,4.4-1.3,7.4-1.3c2.1,0,4.1,0.3,6.1,0.9c2,0.6,3.7,1.4,5.2,2.4l-1,2.2c-1.5-1-3.1-1.8-4.9-2.3c-1.8-0.5-3.6-0.8-5.3-0.8
			c-3.5,0-6.1,0.7-7.8,2.1c-1.8,1.4-2.7,3.2-2.7,5.3c0,1.7,0.5,3,1.4,4c1,1,2.2,1.7,3.6,2.3c1.4,0.5,3.4,1.1,5.8,1.7
			c2.7,0.7,4.9,1.3,6.6,2c1.6,0.6,3,1.6,4.2,2.9c1.2,1.3,1.7,3,1.7,5.2c0,1.8-0.5,3.4-1.5,4.9c-1,1.5-2.5,2.7-4.5,3.5
			c-2,0.9-4.5,1.3-7.5,1.3C267.2,66.8,264.6,66.3,262.1,65.4z"/>
	</g>
	<g id="Shape_10_copy_2">
		<path fill-rule="evenodd" fill="#FFFFFF" d="M78.5,18.4c-24.1-23.9-35.6-23.9-59.8,0c-24.1,23.9-24.1,35.3,0,59.2
			c24.1,23.9,35.6,23.9,59.8,0C102.6,53.7,102.6,42.3,78.5,18.4z"/>
	</g>
	<g>
		<path fill="#303549" d="M79.5,60.6c-4.9,11.3-16.3,19.3-29.6,19.3c-17.8,0-32.2-14.3-32.2-31.9s14.4-31.9,32.2-31.9
			c13.3,0,24.7,7.9,29.6,19.3l-17.4,8.3v8.7L79.5,60.6z"/>
		<image width="124" height="143" xlink:href="42D7495A.png"  transform="matrix(0.24 0 0 0.24 49.8951 44.811)">
		</image>
		<path fill="#FCB54E" d="M66.7,48.4c0,9.2-7.6,16.6-16.8,16.6c0,0.2,0,6.8,0,6.8s-6.6-7.9-9.1-9.5c-4.6-3-7.7-8.1-7.7-13.9
			c0-9.2,7.5-16.6,16.8-16.6S66.7,39.2,66.7,48.4z"/>
	</g>
</g>
</svg>
