<?xml version="1.0" encoding="utf-8"?>
<!-- Generator: Adobe Illustrator 18.1.1, SVG Export Plug-In . SVG Version: 6.00 Build 0)  -->
<svg version="1.1" baseProfile="tiny" id="Layer_1" xmlns="http://www.w3.org/2000/svg" xmlns:xlink="http://www.w3.org/1999/xlink"
	 x="0px" y="0px" viewBox="-49 141 512 512" xml:space="preserve">
<g>
	<path fill="#FAFAFA" d="M431.4,635.7H417V184.1c0-4.8-3.9-8.6-8.6-8.6H247.3c-4.8,0-8.6,3.9-8.6,8.6v37.4h-17.3v-37.4
		c0-4.8-3.9-8.6-8.6-8.6h-37.4v-25.9c0-4.8-3.9-8.6-8.6-8.6s-8.6,3.9-8.6,8.6v25.9h-37.4c-4.8,0-8.6,3.9-8.6,8.6v37.4H86.2
		c-4.8,0-8.6,3.9-8.6,8.6v71.9H5.7c-4.8,0-8.6,3.9-8.6,8.6v325h-14.4c-4.8,0-8.6,3.9-8.6,8.6s3.9,8.6,8.6,8.6h448.7
		c4.8,0,8.6-3.9,8.6-8.6S436.1,635.7,431.4,635.7z M255.9,192.8h143.8v443h-63.3V414.3v-11.5c0-4.8-3.9-8.6-8.6-8.6
		s-8.6,3.9-8.6,8.6v2.9h-17.3v-2.9c0-4.8-3.9-8.6-8.6-8.6s-8.6,3.9-8.6,8.6v2.9h-28.8V230.2V192.8z M129.3,192.8h74.8v28.8h-74.8
		V192.8z M94.8,238.8h143.8v166.8h-63.3v-28.8h25.9c4.8,0,8.6-3.9,8.6-8.6s-3.9-8.6-8.6-8.6h-25.9v-28.8h25.9c4.8,0,8.6-3.9,8.6-8.6
		c0-4.8-3.9-8.6-8.6-8.6h-25.9v-2.9c0-4.8-3.9-8.6-8.6-8.6H94.8V238.8z M14.3,319.3h143.8v94.9v14.8v206.6h-40.3v-37.4
		c0-4.8-3.9-8.6-8.6-8.6h-46c-4.8,0-8.6,3.9-8.6,8.6v37.4H14.3V319.3z M94.8,635.7v-14.4c0-4.8-3.9-8.6-8.6-8.6s-8.6,3.9-8.6,8.6
		v14.4h-5.8V607h28.8v28.8H94.8z M175.4,635.7V429.1v-6.2h143.8v212.9H175.4z"/>
	<path fill="#FAFAFA" d="M212.8,440.1c-4.8,0-8.6,3.9-8.6,8.6v161.1c0,4.8,3.9,8.6,8.6,8.6s8.6-3.9,8.6-8.6V448.8
		C221.4,444,217.5,440.1,212.8,440.1z"/>
	<path fill="#FAFAFA" d="M247.3,440.1c-4.8,0-8.6,3.9-8.6,8.6v161.1c0,4.8,3.9,8.6,8.6,8.6s8.6-3.9,8.6-8.6V448.8
		C255.9,444,252,440.1,247.3,440.1z"/>
	<path fill="#FAFAFA" d="M281.8,440.1c-4.8,0-8.6,3.9-8.6,8.6v161.1c0,4.8,3.9,8.6,8.6,8.6s8.6-3.9,8.6-8.6V448.8
		C290.4,444,286.6,440.1,281.8,440.1z"/>
	<path fill="#FAFAFA" d="M293.3,250.3c4.8,0,8.6-3.9,8.6-8.6v-11.5c0-4.8-3.9-8.6-8.6-8.6s-8.6,3.9-8.6,8.6v11.5
		C284.7,246.4,288.5,250.3,293.3,250.3z"/>
	<path fill="#FAFAFA" d="M327.8,250.3c4.8,0,8.6-3.9,8.6-8.6v-11.5c0-4.8-3.9-8.6-8.6-8.6s-8.6,3.9-8.6,8.6v11.5
		C319.2,246.4,323,250.3,327.8,250.3z"/>
	<path fill="#FAFAFA" d="M362.3,250.3c4.8,0,8.6-3.9,8.6-8.6v-11.5c0-4.8-3.9-8.6-8.6-8.6s-8.6,3.9-8.6,8.6v11.5
		C353.7,246.4,357.6,250.3,362.3,250.3z"/>
	<path fill="#FAFAFA" d="M293.3,307.8c4.8,0,8.6-3.9,8.6-8.6v-11.5c0-4.8-3.9-8.6-8.6-8.6s-8.6,3.9-8.6,8.6v11.5
		C284.7,304,288.5,307.8,293.3,307.8z"/>
	<path fill="#FAFAFA" d="M327.8,307.8c4.8,0,8.6-3.9,8.6-8.6v-11.5c0-4.8-3.9-8.6-8.6-8.6s-8.6,3.9-8.6,8.6v11.5
		C319.2,304,323,307.8,327.8,307.8z"/>
	<path fill="#FAFAFA" d="M362.3,307.8c4.8,0,8.6-3.9,8.6-8.6v-11.5c0-4.8-3.9-8.6-8.6-8.6s-8.6,3.9-8.6,8.6v11.5
		C353.7,304,357.6,307.8,362.3,307.8z"/>
	<path fill="#FAFAFA" d="M293.3,365.4c4.8,0,8.6-3.9,8.6-8.6v-11.5c0-4.8-3.9-8.6-8.6-8.6s-8.6,3.9-8.6,8.6v11.5
		C284.7,361.5,288.5,365.4,293.3,365.4z"/>
	<path fill="#FAFAFA" d="M327.8,365.4c4.8,0,8.6-3.9,8.6-8.6v-11.5c0-4.8-3.9-8.6-8.6-8.6s-8.6,3.9-8.6,8.6v11.5
		C319.2,361.5,323,365.4,327.8,365.4z"/>
	<path fill="#FAFAFA" d="M362.3,365.4c4.8,0,8.6-3.9,8.6-8.6v-11.5c0-4.8-3.9-8.6-8.6-8.6s-8.6,3.9-8.6,8.6v11.5
		C353.7,361.5,357.6,365.4,362.3,365.4z"/>
	<path fill="#FAFAFA" d="M51.7,388.4c4.8,0,8.6-3.9,8.6-8.6v-11.5c0-4.8-3.9-8.6-8.6-8.6s-8.6,3.9-8.6,8.6v11.5
		C43,384.5,46.9,388.4,51.7,388.4z"/>
	<path fill="#FAFAFA" d="M86.2,388.4c4.8,0,8.6-3.9,8.6-8.6v-11.5c0-4.8-3.9-8.6-8.6-8.6s-8.6,3.9-8.6,8.6v11.5
		C77.6,384.5,81.4,388.4,86.2,388.4z"/>
	<path fill="#FAFAFA" d="M120.7,388.4c4.8,0,8.6-3.9,8.6-8.6v-11.5c0-4.8-3.9-8.6-8.6-8.6s-8.6,3.9-8.6,8.6v11.5
		C112.1,384.5,115.9,388.4,120.7,388.4z"/>
	<path fill="#FAFAFA" d="M51.7,445.9c4.8,0,8.6-3.9,8.6-8.6v-11.5c0-4.8-3.9-8.6-8.6-8.6S43,421,43,425.8v11.5
		C43,442,46.9,445.9,51.7,445.9z"/>
	<path fill="#FAFAFA" d="M86.2,445.9c4.8,0,8.6-3.9,8.6-8.6v-11.5c0-4.8-3.9-8.6-8.6-8.6s-8.6,3.9-8.6,8.6v11.5
		C77.6,442,81.4,445.9,86.2,445.9z"/>
	<path fill="#FAFAFA" d="M120.7,445.9c4.8,0,8.6-3.9,8.6-8.6v-11.5c0-4.8-3.9-8.6-8.6-8.6s-8.6,3.9-8.6,8.6v11.5
		C112.1,442,115.9,445.9,120.7,445.9z"/>
	<path fill="#FAFAFA" d="M51.7,503.4c4.8,0,8.6-3.9,8.6-8.6v-11.5c0-4.8-3.9-8.6-8.6-8.6s-8.6,3.9-8.6,8.6v11.5
		C43,499.6,46.9,503.4,51.7,503.4z"/>
	<path fill="#FAFAFA" d="M86.2,503.4c4.8,0,8.6-3.9,8.6-8.6v-11.5c0-4.8-3.9-8.6-8.6-8.6s-8.6,3.9-8.6,8.6v11.5
		C77.6,499.6,81.4,503.4,86.2,503.4z"/>
	<path fill="#FAFAFA" d="M120.7,503.4c4.8,0,8.6-3.9,8.6-8.6v-11.5c0-4.8-3.9-8.6-8.6-8.6s-8.6,3.9-8.6,8.6v11.5
		C112.1,499.6,115.9,503.4,120.7,503.4z"/>
	<path fill="#FAFAFA" d="M60.3,552.3v-11.5c0-4.8-3.9-8.6-8.6-8.6s-8.6,3.9-8.6,8.6v11.5c0,4.8,3.9,8.6,8.6,8.6
		S60.3,557.1,60.3,552.3z"/>
	<path fill="#FAFAFA" d="M86.2,561c4.8,0,8.6-3.9,8.6-8.6v-11.5c0-4.8-3.9-8.6-8.6-8.6s-8.6,3.9-8.6,8.6v11.5
		C77.6,557.1,81.4,561,86.2,561z"/>
	<path fill="#FAFAFA" d="M120.7,561c4.8,0,8.6-3.9,8.6-8.6v-11.5c0-4.8-3.9-8.6-8.6-8.6s-8.6,3.9-8.6,8.6v11.5
		C112.1,557.1,115.9,561,120.7,561z"/>
	<path fill="#FAFAFA" d="M362.3,422.9c4.8,0,8.6-3.9,8.6-8.6v-11.5c0-4.8-3.9-8.6-8.6-8.6s-8.6,3.9-8.6,8.6v11.5
		C353.7,419,357.6,422.9,362.3,422.9z"/>
	<path fill="#FAFAFA" d="M362.3,480.4c4.8,0,8.6-3.9,8.6-8.6v-11.5c0-4.8-3.9-8.6-8.6-8.6s-8.6,3.9-8.6,8.6v11.5
		C353.7,476.6,357.6,480.4,362.3,480.4z"/>
	<path fill="#FAFAFA" d="M362.3,537.9c4.8,0,8.6-3.9,8.6-8.6v-11.5c0-4.8-3.9-8.6-8.6-8.6s-8.6,3.9-8.6,8.6v11.5
		C353.7,534.1,357.6,537.9,362.3,537.9z"/>
	<path fill="#FAFAFA" d="M362.3,595.5c4.8,0,8.6-3.9,8.6-8.6v-11.5c0-4.8-3.9-8.6-8.6-8.6s-8.6,3.9-8.6,8.6v11.5
		C353.7,591.6,357.6,595.5,362.3,595.5z"/>
	<path fill="#FAFAFA" d="M209.9,276.2c0-4.8-3.9-8.6-8.6-8.6h-69c-4.8,0-8.6,3.9-8.6,8.6s3.9,8.6,8.6,8.6h69
		C206,284.8,209.9,281,209.9,276.2z"/>
</g>
</svg>
